# xmcd
#
# Track frame offsets: 
#        150
#        9904
#        19632
#        33148
#        44036
#        58233
#        71694
#        83302
#        98264
#        110352
#
# Disc length: 1639 seconds
#
# Revision: 0
# Processed by: cddbd v1.5.2PL0 Copyright (c) Steve Scherf et al.
# Submitted via: ExactAudioCopyFreeDBPlugin 1.0
#
DISCID=6a06650a
DTITLE=Viateur Caron - Place au blue Grass
DYEAR=1900
DGENRE=Blues
TTITLE0=A boire j'ai recommencée
TTITLE1=Dans mon petit chalet
TTITLE2=Garder le cap
TTITLE3=J'ai besoin de te parler
TTITLE4=Jimmy brown
TTITLE5=Les 4 saisons
TTITLE6=Souvenir les plus beaux
TTITLE7=Une triste no uvelle
TTITLE8=Viens me retrouver
TTITLE9=Ma bien-aimée
EXTD=
EXTT0=
EXTT1=
EXTT2=
EXTT3=
EXTT4=
EXTT5=
EXTT6=
EXTT7=
EXTT8=
EXTT9=
PLAYORDER=
